<?xml version="1.0" encoding="utf-8"?>
<!-- Generator: Adobe Illustrator 25.2.3, SVG Export Plug-In . SVG Version: 6.00 Build 0)  -->
<svg version="1.1" id="Layer_1" xmlns="http://www.w3.org/2000/svg" xmlns:xlink="http://www.w3.org/1999/xlink" x="0px" y="0px"
	 viewBox="0 0 1404 1872" style="enable-background:new 0 0 1404 1872;" xml:space="preserve">
<style type="text/css">
	.st0{fill:none;stroke:#000000;stroke-width:0.5;stroke-miterlimit:10;}
	.st1{fill:none;stroke:#000000;stroke-miterlimit:10;}
	.st2{fill:#1E1E1E;}
</style>
<path class="st0" d="M1,146.5h1403"/>
<path class="st0" d="M702.5,224v1648"/>
<line class="st1" x1="0" y1="223.5" x2="1404" y2="223.5"/>
<line class="st1" x1="0" y1="146.6" x2="1404" y2="146.6"/>
<line class="st1" x1="0" y1="758.4" x2="1404" y2="758.4"/>
<line class="st1" x1="0.1" y1="847.5" x2="1404.1" y2="847.5"/>
<line class="st1" x1="0" y1="1294.5" x2="1404" y2="1294.5"/>
<line class="st1" x1="0" y1="1383.4" x2="1404" y2="1383.4"/>
<line class="st1" x1="702.5" y1="1872" x2="702.5" y2="223.8"/>
<line class="st1" x1="0" y1="312.4" x2="1404" y2="312.4"/>
<g>
	<g>
		<path d="M520.7,61.6c0-3.4,5.3-3.4,5.3,0v15.9c0,6.3-3,10.1-10,10.1c-3.4,0-6.3-0.9-8.8-4.1c-2.1-2.5,1.8-6,3.9-3.4
			c1.7,2.1,3.5,2.6,5.3,2.5c2.3-0.1,4.2-1.1,4.3-5.1L520.7,61.6L520.7,61.6z"/>
		<path d="M551.9,83.8c-2.1,2.5-5,3.9-8.1,3.9c-6,0-10.3-4.2-10.3-9.2c0-3.5,2.1-6.7,5.7-8.1c-0.6-1-1.4-2.7-1.4-4.1
			c0-4.9,3.5-7.8,7.3-7.8c5.1,0,8.2,3.2,8.2,8.1c0,2.9-1.4,5.6-4.2,7.1l2.9,2.8l1.9-3c1.9-2.8,5.5-0.2,3.9,2.4
			c-0.7,1.2-1.7,2.6-2.7,4.2l2.9,2.9c2.6,2.9-1.8,5.8-3.9,3.4L551.9,83.8z M543.8,82.3c1.7,0,3.1-0.7,4.5-2.1
			c-1.8-1.8-3.9-3.9-5.6-5.7c-1.4,0.4-3.6,0.8-3.9,3.9C538.7,80.9,541.2,82.3,543.8,82.3z M544.7,69.7c2.5,0,3.3-2.1,3.3-3.6
			c0-1.5-1.1-2.8-2.5-2.8c-1.4,0-2.4,1.3-2.4,2.8C543,67.6,543.3,68.6,544.7,69.7z"/>
		<path d="M578.5,61.6c0-3.4,5.3-3.4,5.3,0v15.9c0,6.3-3,10.1-10,10.1c-3.4,0-6.3-0.9-8.8-4.1c-2.1-2.5,1.8-6,3.9-3.4
			c1.7,2.1,3.5,2.6,5.3,2.5c2.3-0.1,4.2-1.1,4.3-5.1V61.6L578.5,61.6z"/>
		<path d="M608.1,61.6c0-3.3,5.3-3.4,5.3,0v23c0,3.3-5.3,3.4-5.3,0V61.6z"/>
		<path d="M625.4,87c-1.3,0-2.8-0.7-2.8-2.5V61.7c0-1.4,1.4-2.5,2.8-2.5h9.2c18.4,0,18,27.8,0.4,27.8C635,87,625.4,87,625.4,87z
			 M627.9,64.1v18h6.7c10.9,0,11.3-18,0-18H627.9z"/>
		<path d="M658.6,87c-1.4,0-2.5-1.1-2.5-2.5V61.7c0-1.4,1.1-2.5,2.5-2.5h14.4c3.7,0,3.6,5.2,0,5.2h-11.6v6h10.1c3.6,0,3.6,5.3,0,5.3
			h-10.1v6h12.3c3.7,0,3.9,5.3,0,5.3L658.6,87L658.6,87z"/>
		<path d="M686.6,87c-1.4,0-2.5-1.1-2.5-2.5V61.7c0-1.4,1.1-2.5,2.5-2.5H701c3.7,0,3.6,5.2,0,5.2h-11.6v6h10.1c3.6,0,3.6,5.3,0,5.3
			h-10.1v6h12.3c3.7,0,3.9,5.3,0,5.3L686.6,87L686.6,87z"/>
		<path d="M712.1,62c0-1.4,0.3-2.9,2.4-2.9c1.4,0,1.8,0.4,2.9,1.4l13.3,16.6V61.6c0-1.3,1.2-2.8,2.5-2.8c1.4,0,2.9,1.4,2.9,2.8v22.6
			c0,1.8-1.1,2.5-2.1,2.8c-1.4,0-2.1-0.3-3.3-1.4l-13.3-16.9v15.5c0,1.8-1.1,2.8-2.5,2.8s-2.7-1-2.7-2.8L712.1,62L712.1,62z"/>
		<path d="M744.4,65.2c0.9-7.8,12.7-9.2,18.3-4.9c2.7,2.2-0.2,5.7-2.6,3.9c-3-1.9-9.7-2.8-10.6,1.4c-1.1,6.6,16.4,2.8,16.1,13.5
			c-0.3,10.2-15.1,10.5-20.6,5.9c-1.3-1.1-1.3-2.9-0.6-3.9c1-1,2.2-1.4,3.6-0.3c3.3,2.3,11.8,3.9,12.4-1.8
			C759.9,73,743.2,76.6,744.4,65.2z"/>
		<path d="M772.5,72.9c0-7.8,4.9-14.4,14.1-14.4c3.5,0,6.3,1,9.2,3.6c1.1,1,1.2,2.8,0.1,3.9c-1.1,1-2.7,0.8-3.7-0.1
			c-1.7-1.7-3.3-2.2-5.6-2.2c-6.2,0-9.2,4.4-9.2,9.3c0,5,2.9,9.6,9.2,9.6c2.3,0,4.4-0.9,6.3-2.6c1.2-1,3-0.5,3.7,0.5
			c0.6,0.9,1,2.4-0.4,3.8c-2.8,2.6-6.2,3.1-9.5,3.1C776.9,87.3,772.5,80.6,772.5,72.9z"/>
		<path d="M805.1,84.5V61.7c0-1.4,1-2.5,2.9-2.5c1.4,0,2.5,1,2.5,2.5v8.8h13.1v-8.8c0-1.4,1.3-2.5,2.7-2.5c1.4,0,2.5,1,2.5,2.5v22.8
			c0,1.4-1.1,2.5-2.5,2.5c-1.4,0-2.7-1.1-2.7-2.5v-8.8h-13.1v8.8c0,1.4-1,2.5-2.5,2.5C806.1,87,805.1,85.9,805.1,84.5z"/>
		<path d="M842.9,69.3v14.9c0,1.8-1.4,2.8-2.9,2.8c-1.3,0-2.4-1-2.4-2.8V61.6c0-2.1,1.8-2.8,2.4-2.8c1.2,0,1.8,0.7,2.5,1.4l8.8,11.9
			l9.2-12.4c1.3-1.7,4.6-1,4.6,1.8v22.6c0,1.8-1.1,2.8-2.4,2.8c-1.4,0-2.6-1-2.6-2.8V69.3l-6.7,8.4c-1.4,1.8-3.3,1.8-4.6,0
			L842.9,69.3z"/>
		<path d="M874.2,61.6c0-3.3,5.3-3.4,5.3,0v23c0,3.3-5.3,3.4-5.3,0V61.6z"/>
		<path d="M891.1,87c-1.4,0-2.5-1.1-2.5-2.5V61.7c0-1.4,1.1-2.5,2.5-2.5h14.4c3.7,0,3.6,5.2,0,5.2H894v6h10.1c3.6,0,3.6,5.3,0,5.3
			H894v6h12.3c3.7,0,3.9,5.3,0,5.3L891.1,87L891.1,87z"/>
		<path d="M919.4,87c-1.3,0-2.8-0.7-2.8-2.5V61.7c0-1.4,1.4-2.5,2.8-2.5h9.2c18.4,0,18,27.8,0.4,27.8C928.9,87,919.4,87,919.4,87z
			 M921.9,64.1v18h6.7c10.9,0,11.3-18,0-18H921.9z"/>
		<path d="M952.6,87c-1.4,0-2.5-1.1-2.5-2.5V61.7c0-1.4,1.1-2.5,2.5-2.5h14.4c3.7,0,3.6,5.2,0,5.2h-11.6v6h10.1c3.6,0,3.6,5.3,0,5.3
			h-10.1v6h12.3c3.7,0,3.9,5.3,0,5.3L952.6,87L952.6,87z"/>
	</g>
	<g>
		<g>
			<g>
				<path class="st2" d="M438.2,95.8c-1.5-0.4-2.9-1.5-3.7-2.9c-1.6-3-0.6-6.7,2.4-8.4l15.7-8.7L444,60.1c-1.6-3-0.6-6.7,2.4-8.4
					c3-1.6,6.7-0.6,8.4,2.4l11.6,21.1c1.6,3,0.6,6.7-2.4,8.4l-21.1,11.6C441.4,96.1,439.8,96.2,438.2,95.8z"/>
				<path class="st2" d="M484.5,52.8c1.5,0.4,2.9,1.5,3.7,2.9c1.6,3,0.6,6.7-2.4,8.4l-15.7,8.7l8.7,15.7c1.6,3,0.6,6.7-2.4,8.4
					c-3,1.6-6.7,0.6-8.4-2.4l-11.6-21.1c-1.6-3-0.6-6.7,2.4-8.4l21.1-11.6C481.3,52.5,483,52.3,484.5,52.8z"/>
				<path d="M469.4,46.4c-1.6-0.6-3.3-0.4-4.7,0.2c-1.4,0.7-2.6,1.9-3.2,3.5l-14.6,41.4c-1.1,3.2,0.5,6.7,3.7,7.9
					c1.6,0.6,3.3,0.4,4.7-0.2c1.4-0.7,2.6-1.9,3.2-3.5l14.6-41.4C474.2,51,472.6,47.5,469.4,46.4z"/>
			</g>
		</g>
	</g>
</g>
<g>
	<path d="M30.2,193.3v-16.7h3v7.7h0.2l6.5-7.7h3.7l-6.5,7.5l6.5,9.2H40l-5-7.2l-1.9,2.2v5H30.2z"/>
	<path d="M47.9,193.3h-3.2l5.9-16.7h3.7l5.9,16.7h-3.2L52.5,180h-0.1L47.9,193.3z M48,186.7h8.8v2.4H48V186.7z"/>
	<path d="M62.4,193.3v-16.7h3v14.2h7.4v2.5H62.4z"/>
	<path d="M75.4,193.3v-16.7h10.9v2.5h-7.8v4.5h7.3v2.5h-7.3v4.6h7.9v2.5H75.4z"/>
	<path d="M103.1,176.5v16.7h-2.7l-7.9-11.4h-0.1v11.4h-3v-16.7h2.7l7.9,11.4h0.1v-11.4H103.1z"/>
	<path d="M112.1,193.3h-5.7v-16.7h5.8c1.7,0,3.1,0.3,4.3,1s2.1,1.6,2.8,2.9c0.6,1.2,1,2.7,1,4.5c0,1.7-0.3,3.2-1,4.5
		c-0.6,1.3-1.6,2.2-2.8,2.9C115.2,192.9,113.8,193.3,112.1,193.3z M109.4,190.6h2.5c1.2,0,2.1-0.2,2.9-0.6c0.8-0.4,1.4-1.1,1.8-1.9
		c0.4-0.9,0.6-1.9,0.6-3.2s-0.2-2.3-0.6-3.2c-0.4-0.8-1-1.5-1.7-1.9c-0.8-0.4-1.7-0.6-2.8-0.6h-2.6V190.6z"/>
	<path d="M123.1,193.3v-16.7H134v2.5h-7.8v4.5h7.3v2.5h-7.3v4.6h7.9v2.5H123.1z"/>
	<path d="M137.1,193.3v-16.7h6.3c1.3,0,2.4,0.2,3.2,0.7c0.9,0.4,1.5,1.1,2,1.9s0.7,1.7,0.7,2.8c0,1.1-0.2,2-0.7,2.8
		c-0.5,0.8-1.1,1.4-2,1.8c-0.9,0.4-2,0.6-3.3,0.6h-4.5v-2.5h4.1c0.8,0,1.4-0.1,1.8-0.3c0.5-0.2,0.8-0.5,1.1-0.9
		c0.2-0.4,0.3-0.9,0.3-1.5c0-0.6-0.1-1.1-0.4-1.5c-0.2-0.4-0.6-0.7-1.1-1c-0.5-0.2-1.1-0.3-1.9-0.3h-2.8v14.2H137.1z M145.7,185.7
		l4.1,7.6h-3.4l-4.1-7.6H145.7z"/>
	<path d="M155.5,193.3l-4.7-16.7h3.3l3,12.3h0.2l3.2-12.3h3l3.2,12.3h0.1l3-12.3h3.3l-4.7,16.7h-3l-3.3-11.7h-0.1l-3.4,11.7H155.5z"
		/>
	<path d="M189.2,184.9c0,1.8-0.3,3.3-1,4.6s-1.6,2.3-2.7,2.9c-1.2,0.7-2.5,1-3.9,1c-1.5,0-2.8-0.3-3.9-1c-1.2-0.7-2.1-1.7-2.7-2.9
		c-0.7-1.3-1-2.8-1-4.6c0-1.8,0.3-3.3,1-4.6s1.6-2.3,2.7-2.9s2.5-1,3.9-1c1.5,0,2.8,0.3,3.9,1c1.2,0.7,2.1,1.7,2.7,2.9
		S189.2,183.1,189.2,184.9z M186.2,184.9c0-1.3-0.2-2.3-0.6-3.2c-0.4-0.9-0.9-1.5-1.6-2c-0.7-0.4-1.5-0.7-2.4-0.7
		c-0.9,0-1.7,0.2-2.4,0.7c-0.7,0.4-1.2,1.1-1.6,2c-0.4,0.9-0.6,1.9-0.6,3.2c0,1.3,0.2,2.3,0.6,3.2c0.4,0.9,0.9,1.5,1.6,2
		c0.7,0.4,1.5,0.7,2.4,0.7c0.9,0,1.7-0.2,2.4-0.7c0.7-0.4,1.2-1.1,1.6-2C186,187.2,186.2,186.2,186.2,184.9z"/>
	<path d="M206.4,182.2h-3.1c-0.1-0.5-0.2-0.9-0.5-1.3c-0.2-0.4-0.5-0.7-0.9-1s-0.7-0.5-1.2-0.6s-0.9-0.2-1.4-0.2
		c-0.9,0-1.7,0.2-2.4,0.7c-0.7,0.5-1.3,1.1-1.6,2c-0.4,0.9-0.6,1.9-0.6,3.2c0,1.3,0.2,2.4,0.6,3.2c0.4,0.9,1,1.5,1.6,2
		s1.5,0.7,2.4,0.7c0.5,0,1-0.1,1.4-0.2c0.4-0.1,0.8-0.3,1.2-0.6c0.4-0.3,0.6-0.6,0.9-1s0.4-0.8,0.5-1.3l3.1,0
		c-0.1,0.8-0.4,1.5-0.7,2.2c-0.4,0.7-0.9,1.3-1.5,1.8s-1.3,0.9-2.1,1.2c-0.8,0.3-1.7,0.4-2.7,0.4c-1.5,0-2.8-0.3-3.9-1
		c-1.2-0.7-2.1-1.7-2.7-2.9c-0.7-1.3-1-2.8-1-4.6c0-1.8,0.3-3.3,1-4.6c0.7-1.3,1.6-2.3,2.7-2.9s2.5-1,3.9-1c0.9,0,1.8,0.1,2.6,0.4
		c0.8,0.3,1.5,0.6,2.1,1.1c0.6,0.5,1.1,1.1,1.5,1.8C206,180.4,206.3,181.2,206.4,182.2z"/>
	<path d="M209.2,193.3v-16.7h3v7.1h7.8v-7.1h3v16.7h-3v-7.1h-7.8v7.1H209.2z"/>
	<path d="M226.3,193.3v-16.7h10.9v2.5h-7.8v4.5h7.3v2.5h-7.3v4.6h7.9v2.5H226.3z"/>
	<path d="M241.9,184.3c-0.4,0-0.8-0.2-1.2-0.5c-0.3-0.3-0.5-0.7-0.5-1.2c0-0.4,0.2-0.8,0.5-1.1s0.7-0.5,1.2-0.5
		c0.4,0,0.8,0.2,1.2,0.5s0.5,0.7,0.5,1.1c0,0.3-0.1,0.6-0.2,0.8c-0.1,0.2-0.3,0.4-0.6,0.6S242.2,184.3,241.9,184.3z M241.9,193.4
		c-0.4,0-0.8-0.2-1.2-0.5c-0.3-0.3-0.5-0.7-0.5-1.2c0-0.4,0.2-0.8,0.5-1.1c0.3-0.3,0.7-0.5,1.2-0.5c0.4,0,0.8,0.2,1.2,0.5
		c0.3,0.3,0.5,0.7,0.5,1.1c0,0.3-0.1,0.6-0.2,0.8c-0.1,0.2-0.3,0.4-0.6,0.6S242.2,193.4,241.9,193.4z"/>
</g>
<g>
	<path d="M279.4,254.4h6.3l6.6,16.1h0.3l6.6-16.1h6.3v24h-4.9v-15.6h-0.2l-6.2,15.5h-3.4l-6.2-15.6h-0.2v15.7h-4.9V254.4z"/>
	<path d="M331.6,266.4c0,2.6-0.5,4.8-1.5,6.7s-2.3,3.2-4,4.2s-3.6,1.4-5.7,1.4c-2.1,0-4-0.5-5.7-1.5s-3-2.4-4-4.2s-1.5-4.1-1.5-6.7
		c0-2.6,0.5-4.8,1.5-6.7s2.3-3.2,4-4.2c1.7-1,3.6-1.4,5.7-1.4c2.1,0,4,0.5,5.7,1.4c1.7,1,3,2.4,4,4.2S331.6,263.7,331.6,266.4z
		 M326.5,266.4c0-1.7-0.3-3.1-0.8-4.3s-1.2-2-2.1-2.6s-2-0.9-3.2-0.9s-2.3,0.3-3.2,0.9s-1.6,1.5-2.1,2.6s-0.8,2.6-0.8,4.3
		s0.3,3.1,0.8,4.3s1.2,2,2.1,2.6s2,0.9,3.2,0.9s2.3-0.3,3.2-0.9s1.6-1.5,2.1-2.6S326.5,268.1,326.5,266.4z"/>
	<path d="M355.5,254.4v24h-4.4l-10.4-15.1h-0.2v15.1h-5.1v-24h4.5l10.4,15.1h0.2v-15.1H355.5z"/>
	<path d="M358.7,258.5v-4.2h19.7v4.2h-7.3v19.8h-5v-19.8H358.7z"/>
	<path d="M382.9,278.4h-5.4l8.3-24h6.5l8.3,24h-5.4l-6-18.5h-0.2L382.9,278.4z M382.5,268.9h12.8v4h-12.8V268.9z"/>
	<path d="M418.2,262.1c-0.2-0.6-0.4-1.1-0.7-1.5s-0.7-0.8-1.1-1.1s-0.9-0.5-1.5-0.7s-1.1-0.2-1.8-0.2c-1.2,0-2.3,0.3-3.2,0.9
		s-1.6,1.5-2.2,2.7s-0.8,2.6-0.8,4.2s0.3,3.1,0.8,4.3s1.2,2.1,2.2,2.7s2,0.9,3.3,0.9c1.1,0,2.1-0.2,2.9-0.6s1.4-1,1.9-1.7
		s0.7-1.6,0.7-2.7l1,0.2h-6.2v-3.8h10v3c0,2.1-0.4,3.9-1.3,5.4s-2.1,2.7-3.7,3.5s-3.4,1.2-5.4,1.2c-2.2,0-4.2-0.5-5.9-1.5
		s-3-2.4-4-4.3s-1.4-4-1.4-6.6c0-1.9,0.3-3.7,0.8-5.2s1.4-2.8,2.4-3.9s2.2-1.9,3.6-2.4s2.8-0.8,4.4-0.8c1.4,0,2.6,0.2,3.8,0.6
		s2.2,1,3.1,1.7c0.9,0.7,1.7,1.6,2.2,2.6s0.9,2.1,1.1,3.3H418.2z"/>
</g>
<g>
	<path d="M980.8,278.9h-8.5v-24h8.6c2.4,0,4.5,0.5,6.2,1.4c1.7,1,3.1,2.3,4,4.1s1.4,3.9,1.4,6.4c0,2.5-0.5,4.6-1.4,6.4
		s-2.3,3.2-4,4.1S983.2,278.9,980.8,278.9z M977.3,274.6h3.2c1.5,0,2.8-0.3,3.8-0.8s1.8-1.4,2.3-2.5s0.8-2.6,0.8-4.4
		c0-1.8-0.3-3.2-0.8-4.3s-1.3-2-2.3-2.5s-2.3-0.8-3.8-0.8h-3.2V274.6z"/>
	<path d="M1001.3,254.9v24h-5.1v-24H1001.3z"/>
	<path d="M1005.5,278.9v-24h16.2v4.2h-11.1v5.7h10.3v4.2h-10.3v5.7h11.1v4.2H1005.5z"/>
	<path d="M1045.8,254.9v24h-4.4l-10.4-15.1h-0.2v15.1h-5.1v-24h4.5l10.4,15.1h0.2v-15.1H1045.8z"/>
	<path d="M1063,261.8c-0.1-0.9-0.5-1.7-1.2-2.2s-1.7-0.8-2.9-0.8c-0.8,0-1.5,0.1-2.1,0.3s-1,0.5-1.3,1s-0.5,0.9-0.5,1.4
		c0,0.4,0.1,0.8,0.3,1.1s0.5,0.6,0.8,0.8s0.8,0.4,1.2,0.6s1,0.3,1.5,0.4l2.2,0.5c1,0.2,2,0.5,2.9,0.9s1.6,0.9,2.3,1.4s1.1,1.2,1.5,2
		s0.5,1.7,0.5,2.7c0,1.5-0.4,2.7-1.1,3.8s-1.8,1.9-3.2,2.5s-3.1,0.9-5,0.9c-1.9,0-3.6-0.3-5.1-0.9s-2.6-1.5-3.4-2.6
		s-1.2-2.6-1.3-4.3h4.9c0.1,0.8,0.3,1.5,0.7,2s1,0.9,1.7,1.2s1.5,0.4,2.3,0.4c0.9,0,1.6-0.1,2.2-0.4s1.1-0.6,1.5-1s0.5-1,0.5-1.5
		c0-0.5-0.2-1-0.5-1.4s-0.8-0.7-1.4-0.9s-1.3-0.5-2.2-0.7l-2.6-0.7c-2-0.5-3.6-1.3-4.8-2.3s-1.8-2.5-1.7-4.2c0-1.5,0.4-2.7,1.2-3.8
		s1.9-1.9,3.2-2.5c1.4-0.6,2.9-0.9,4.7-0.9c1.8,0,3.3,0.3,4.7,0.9c1.3,0.6,2.4,1.5,3.1,2.5s1.1,2.3,1.1,3.8H1063z"/>
	<path d="M1070.7,259.1v-4.2h19.7v4.2h-7.3v19.8h-5v-19.8H1070.7z"/>
	<path d="M1094.8,278.9h-5.4l8.3-24h6.5l8.3,24h-5.4l-6-18.5h-0.2L1094.8,278.9z M1094.5,269.5h12.8v4h-12.8V269.5z"/>
	<path d="M1130.2,262.7c-0.2-0.6-0.4-1.1-0.7-1.5s-0.7-0.8-1.1-1.1s-0.9-0.5-1.5-0.7s-1.1-0.2-1.8-0.2c-1.2,0-2.3,0.3-3.2,0.9
		s-1.6,1.5-2.2,2.7s-0.8,2.6-0.8,4.2s0.3,3.1,0.8,4.3s1.2,2.1,2.2,2.7s2,0.9,3.3,0.9c1.1,0,2.1-0.2,2.9-0.6s1.4-1,1.9-1.7
		s0.7-1.6,0.7-2.7l1,0.2h-6.2v-3.8h10v3c0,2.1-0.4,3.9-1.3,5.4s-2.1,2.7-3.7,3.5s-3.4,1.2-5.4,1.2c-2.2,0-4.2-0.5-5.9-1.5
		s-3-2.4-4-4.3s-1.4-4-1.4-6.6c0-1.9,0.3-3.7,0.8-5.2s1.4-2.8,2.4-3.9s2.2-1.9,3.6-2.4s2.8-0.8,4.4-0.8c1.4,0,2.6,0.2,3.8,0.6
		s2.2,1,3.1,1.7s1.7,1.6,2.2,2.6s0.9,2.1,1.1,3.3H1130.2z"/>
</g>
<g>
	<path d="M256.9,791.2h6.3l6.6,16.1h0.3l6.6-16.1h6.3v24h-4.9v-15.6h-0.2l-6.2,15.5h-3.4l-6.2-15.6h-0.2v15.7h-4.9V791.2z"/>
	<path d="M292.1,791.2v24H287v-24H292.1z"/>
	<path d="M295.4,795.4v-4.2h19.7v4.2h-7.3v19.8h-5v-19.8H295.4z"/>
	<path d="M317.4,795.4v-4.2h19.7v4.2h-7.3v19.8h-5v-19.8H317.4z"/>
	<path d="M345.8,815.2l-6.9-24h5.5l4,16.7h0.2l4.4-16.7h4.7l4.4,16.7h0.2l4-16.7h5.5l-6.9,24h-4.9l-4.6-15.7h-0.2l-4.6,15.7H345.8z"
		/>
	<path d="M395.3,803.2c0,2.6-0.5,4.8-1.5,6.7s-2.3,3.2-4,4.2s-3.6,1.4-5.7,1.4c-2.1,0-4-0.5-5.7-1.5s-3-2.4-4-4.2s-1.5-4.1-1.5-6.7
		c0-2.6,0.5-4.8,1.5-6.7s2.3-3.2,4-4.2s3.6-1.4,5.7-1.4c2.1,0,4,0.5,5.7,1.4s3,2.4,4,4.2S395.3,800.6,395.3,803.2z M390.2,803.2
		c0-1.7-0.3-3.1-0.8-4.3s-1.2-2-2.1-2.6s-2-0.9-3.2-0.9s-2.3,0.3-3.2,0.9s-1.6,1.5-2.1,2.6s-0.8,2.6-0.8,4.3s0.3,3.1,0.8,4.3
		s1.2,2,2.1,2.6s2,0.9,3.2,0.9s2.3-0.3,3.2-0.9s1.6-1.5,2.1-2.6S390.2,804.9,390.2,803.2z"/>
	<path d="M420.2,799.6h-5.1c-0.1-0.7-0.3-1.3-0.6-1.8s-0.7-1-1.1-1.3s-1-0.6-1.6-0.8s-1.2-0.3-1.9-0.3c-1.2,0-2.3,0.3-3.2,0.9
		s-1.6,1.5-2.1,2.7s-0.8,2.6-0.8,4.2c0,1.7,0.3,3.1,0.8,4.3s1.2,2,2.2,2.6s2,0.9,3.2,0.9c0.7,0,1.3-0.1,1.9-0.3s1.1-0.4,1.6-0.8
		s0.8-0.8,1.1-1.3s0.5-1.1,0.6-1.7l5.1,0c-0.1,1.1-0.5,2.2-1,3.2s-1.2,1.9-2.1,2.7s-1.9,1.4-3.2,1.9s-2.6,0.7-4.1,0.7
		c-2.1,0-4.1-0.5-5.7-1.5s-3-2.4-4-4.2s-1.5-4.1-1.5-6.7c0-2.6,0.5-4.8,1.5-6.7s2.3-3.2,4-4.2s3.6-1.4,5.7-1.4
		c1.4,0,2.7,0.2,3.9,0.6s2.2,1,3.2,1.7s1.7,1.7,2.3,2.7S420.1,798.2,420.2,799.6z"/>
	<path d="M423.9,815.2v-24h5.1v9.9h10.3v-9.9h5.1v24h-5.1v-9.9h-10.3v9.9H423.9z"/>
</g>
<g>
	<path d="M948.8,815.7h-8.5v-24h8.6c2.4,0,4.5,0.5,6.2,1.4s3.1,2.3,4,4.1s1.4,3.9,1.4,6.4c0,2.5-0.5,4.6-1.4,6.4s-2.3,3.2-4,4.1
		S951.3,815.7,948.8,815.7z M945.4,811.4h3.2c1.5,0,2.8-0.3,3.8-0.8s1.8-1.4,2.3-2.5s0.8-2.6,0.8-4.4c0-1.8-0.3-3.2-0.8-4.3
		s-1.3-2-2.3-2.5s-2.3-0.8-3.8-0.8h-3.2V811.4z"/>
	<path d="M986.4,803.7c0,2.6-0.5,4.8-1.5,6.7s-2.3,3.2-4,4.2s-3.6,1.4-5.7,1.4c-2.1,0-4-0.5-5.7-1.5s-3-2.4-4-4.2s-1.5-4.1-1.5-6.7
		c0-2.6,0.5-4.8,1.5-6.7s2.3-3.2,4-4.2s3.6-1.4,5.7-1.4c2.1,0,4,0.5,5.7,1.4s3,2.4,4,4.2S986.4,801.1,986.4,803.7z M981.2,803.7
		c0-1.7-0.3-3.1-0.8-4.3s-1.2-2-2.1-2.6s-2-0.9-3.2-0.9s-2.3,0.3-3.2,0.9s-1.6,1.5-2.1,2.6s-0.8,2.6-0.8,4.3s0.3,3.1,0.8,4.3
		s1.2,2,2.1,2.6s2,0.9,3.2,0.9s2.3-0.3,3.2-0.9s1.6-1.5,2.1-2.6S981.2,805.4,981.2,803.7z"/>
	<path d="M1010.2,791.7v24h-4.4l-10.4-15.1h-0.2v15.1h-5.1v-24h4.5l10.4,15.1h0.2v-15.1H1010.2z"/>
	<path d="M1034.5,791.7v24h-4.4l-10.4-15.1h-0.2v15.1h-5.1v-24h4.5l10.4,15.1h0.2v-15.1H1034.5z"/>
	<path d="M1038.6,815.7v-24h16.2v4.2h-11.1v5.7h10.3v4.2h-10.3v5.7h11.1v4.2H1038.6z"/>
	<path d="M1058.8,815.7v-24h9.5c1.8,0,3.4,0.3,4.6,1s2.3,1.6,2.9,2.7s1,2.6,1,4.1c0,1.6-0.3,3-1,4.1s-1.7,2-3,2.6s-2.9,0.9-4.7,0.9
		h-6.3v-4.1h5.5c1,0,1.8-0.1,2.4-0.4s1.1-0.7,1.4-1.2s0.5-1.2,0.5-2c0-0.8-0.2-1.5-0.5-2s-0.8-1-1.4-1.2s-1.5-0.4-2.4-0.4h-3.4v19.9
		H1058.8z M1071.8,804.8l6,10.9h-5.6l-5.8-10.9H1071.8z"/>
	<path d="M1093.5,798.6c-0.1-0.9-0.5-1.7-1.2-2.2s-1.7-0.8-2.9-0.8c-0.8,0-1.5,0.1-2.1,0.3s-1,0.5-1.3,1s-0.5,0.9-0.5,1.4
		c0,0.4,0.1,0.8,0.3,1.1s0.5,0.6,0.8,0.8s0.8,0.4,1.2,0.6s1,0.3,1.5,0.4l2.2,0.5c1,0.2,2,0.5,2.9,0.9s1.6,0.9,2.3,1.4s1.1,1.2,1.5,2
		s0.5,1.7,0.5,2.7c0,1.5-0.4,2.7-1.1,3.8s-1.8,1.9-3.2,2.5s-3.1,0.9-5,0.9c-1.9,0-3.6-0.3-5.1-0.9s-2.6-1.5-3.4-2.6
		s-1.2-2.6-1.3-4.3h4.9c0.1,0.8,0.3,1.5,0.7,2s1,0.9,1.7,1.2s1.5,0.4,2.3,0.4c0.9,0,1.6-0.1,2.2-0.4s1.1-0.6,1.5-1s0.5-1,0.5-1.5
		c0-0.5-0.2-1-0.5-1.4s-0.8-0.7-1.4-0.9s-1.3-0.5-2.2-0.7l-2.6-0.7c-2-0.5-3.6-1.3-4.8-2.3s-1.8-2.5-1.7-4.2c0-1.5,0.4-2.7,1.2-3.8
		s1.9-1.9,3.2-2.5s2.9-0.9,4.7-0.9c1.8,0,3.3,0.3,4.7,0.9s2.4,1.5,3.1,2.5s1.1,2.3,1.1,3.8H1093.5z"/>
	<path d="M1101.2,795.9v-4.2h19.7v4.2h-7.3v19.8h-5v-19.8H1101.2z"/>
	<path d="M1125.4,815.7h-5.4l8.3-24h6.5l8.3,24h-5.4l-6-18.5h-0.2L1125.4,815.7z M1125,806.3h12.8v4H1125V806.3z"/>
	<path d="M1160.7,799.5c-0.2-0.6-0.4-1.1-0.7-1.5s-0.7-0.8-1.1-1.1s-0.9-0.5-1.5-0.7s-1.1-0.2-1.8-0.2c-1.2,0-2.3,0.3-3.2,0.9
		s-1.6,1.5-2.2,2.7s-0.8,2.6-0.8,4.2s0.3,3.1,0.8,4.3s1.2,2.1,2.2,2.7s2,0.9,3.3,0.9c1.1,0,2.1-0.2,2.9-0.6s1.4-1,1.9-1.7
		s0.7-1.6,0.7-2.7l1,0.2h-6.2v-3.8h10v3c0,2.1-0.4,3.9-1.3,5.4s-2.1,2.7-3.7,3.5s-3.4,1.2-5.4,1.2c-2.2,0-4.2-0.5-5.9-1.5
		s-3-2.4-4-4.3s-1.4-4-1.4-6.6c0-1.9,0.3-3.7,0.8-5.2s1.4-2.8,2.4-3.9s2.2-1.9,3.6-2.4s2.8-0.8,4.4-0.8c1.4,0,2.6,0.2,3.8,0.6
		s2.2,1,3.1,1.7s1.7,1.6,2.2,2.6s0.9,2.1,1.1,3.3H1160.7z"/>
</g>
<g>
	<path d="M284,1350.7v-24h15.9v4.2h-10.8v5.7h9.8v4.2h-9.8v9.9H284z"/>
	<path d="M303.3,1350.7v-24h9.5c1.8,0,3.4,0.3,4.6,1s2.3,1.6,2.9,2.7s1,2.6,1,4.1c0,1.6-0.3,3-1,4.1s-1.7,2-3,2.6s-2.9,0.9-4.7,0.9
		h-6.3v-4.1h5.5c1,0,1.8-0.1,2.4-0.4s1.1-0.7,1.4-1.2s0.5-1.2,0.5-2c0-0.8-0.2-1.5-0.5-2s-0.8-1-1.4-1.2s-1.5-0.4-2.4-0.4h-3.4v19.9
		H303.3z M316.3,1339.8l6,10.9h-5.6l-5.8-10.9H316.3z"/>
	<path d="M325,1350.7v-24h16.2v4.2h-11.1v5.7h10.3v4.2h-10.3v5.7h11.1v4.2H325z"/>
	<path d="M350.3,1326.7v24h-5.1v-24H350.3z"/>
	<path d="M353.5,1330.9v-4.2h19.7v4.2h-7.3v19.8h-5v-19.8H353.5z"/>
	<path d="M377.7,1350.7h-5.4l8.3-24h6.5l8.3,24h-5.4l-6-18.5h-0.2L377.7,1350.7z M377.4,1341.3h12.8v4h-12.8V1341.3z"/>
	<path d="M413,1334.5c-0.2-0.6-0.4-1.1-0.7-1.5s-0.7-0.8-1.1-1.1s-0.9-0.5-1.5-0.7s-1.1-0.2-1.8-0.2c-1.2,0-2.3,0.3-3.2,0.9
		s-1.6,1.5-2.2,2.7s-0.8,2.6-0.8,4.2s0.3,3.1,0.8,4.3s1.2,2.1,2.2,2.7s2,0.9,3.3,0.9c1.1,0,2.1-0.2,2.9-0.6s1.4-1,1.9-1.7
		s0.7-1.6,0.7-2.7l1,0.2h-6.2v-3.8h10v3c0,2.1-0.4,3.9-1.3,5.4s-2.1,2.7-3.7,3.5s-3.4,1.2-5.4,1.2c-2.2,0-4.2-0.5-5.9-1.5
		s-3-2.4-4-4.3s-1.4-4-1.4-6.6c0-1.9,0.3-3.7,0.8-5.2s1.4-2.8,2.4-3.9s2.2-1.9,3.6-2.4s2.8-0.8,4.4-0.8c1.4,0,2.6,0.2,3.8,0.6
		s2.2,1,3.1,1.7s1.7,1.6,2.2,2.6s0.9,2.1,1.1,3.3H413z"/>
</g>
<g>
	<path d="M972.8,1334.2c-0.1-0.9-0.5-1.7-1.2-2.2s-1.7-0.8-2.9-0.8c-0.8,0-1.5,0.1-2.1,0.3s-1,0.5-1.3,1s-0.5,0.9-0.5,1.4
		c0,0.4,0.1,0.8,0.3,1.1s0.5,0.6,0.8,0.8s0.8,0.4,1.2,0.6s1,0.3,1.5,0.4l2.2,0.5c1,0.2,2,0.5,2.9,0.9s1.6,0.9,2.3,1.4s1.1,1.2,1.5,2
		s0.5,1.7,0.5,2.7c0,1.5-0.4,2.7-1.1,3.8s-1.8,1.9-3.2,2.5s-3.1,0.9-5,0.9c-1.9,0-3.6-0.3-5.1-0.9s-2.6-1.5-3.4-2.6
		s-1.2-2.6-1.3-4.3h4.9c0.1,0.8,0.3,1.5,0.7,2s1,0.9,1.7,1.2s1.5,0.4,2.3,0.4c0.9,0,1.6-0.1,2.2-0.4s1.1-0.6,1.5-1s0.5-1,0.5-1.5
		c0-0.5-0.2-1-0.5-1.4s-0.8-0.7-1.4-0.9s-1.3-0.5-2.2-0.7l-2.6-0.7c-2-0.5-3.6-1.3-4.8-2.3s-1.8-2.5-1.7-4.2c0-1.5,0.4-2.7,1.2-3.8
		s1.9-1.9,3.2-2.5s2.9-0.9,4.7-0.9c1.8,0,3.3,0.3,4.7,0.9s2.4,1.5,3.1,2.5s1.1,2.3,1.1,3.8H972.8z"/>
	<path d="M1003.4,1339.2c0,2.6-0.5,4.8-1.5,6.7s-2.3,3.2-4,4.2s-3.6,1.4-5.7,1.4c-2.1,0-4-0.5-5.7-1.5s-3-2.4-4-4.2
		s-1.5-4.1-1.5-6.7c0-2.6,0.5-4.8,1.5-6.7s2.3-3.2,4-4.2s3.6-1.4,5.7-1.4c2.1,0,4,0.5,5.7,1.4s3,2.4,4,4.2
		S1003.4,1336.6,1003.4,1339.2z M998.3,1339.2c0-1.7-0.3-3.1-0.8-4.3s-1.2-2-2.1-2.6s-2-0.9-3.2-0.9s-2.3,0.3-3.2,0.9
		s-1.6,1.5-2.1,2.6s-0.8,2.6-0.8,4.3s0.3,3.1,0.8,4.3s1.2,2,2.1,2.6s2,0.9,3.2,0.9s2.3-0.3,3.2-0.9s1.6-1.5,2.1-2.6
		S998.3,1340.9,998.3,1339.2z"/>
	<path d="M1027.3,1327.2v24h-4.4l-10.4-15.1h-0.2v15.1h-5.1v-24h4.5l10.4,15.1h0.2v-15.1H1027.3z"/>
	<path d="M1044.5,1334.2c-0.1-0.9-0.5-1.7-1.2-2.2s-1.7-0.8-2.9-0.8c-0.8,0-1.5,0.1-2.1,0.3s-1,0.5-1.3,1s-0.5,0.9-0.5,1.4
		c0,0.4,0.1,0.8,0.3,1.1s0.5,0.6,0.8,0.8s0.8,0.4,1.2,0.6s1,0.3,1.5,0.4l2.2,0.5c1,0.2,2,0.5,2.9,0.9s1.6,0.9,2.3,1.4s1.1,1.2,1.5,2
		s0.5,1.7,0.5,2.7c0,1.5-0.4,2.7-1.1,3.8s-1.8,1.9-3.2,2.5s-3.1,0.9-5,0.9c-1.9,0-3.6-0.3-5.1-0.9s-2.6-1.5-3.4-2.6
		s-1.2-2.6-1.3-4.3h4.9c0.1,0.8,0.3,1.5,0.7,2s1,0.9,1.7,1.2s1.5,0.4,2.3,0.4c0.9,0,1.6-0.1,2.2-0.4s1.1-0.6,1.5-1s0.5-1,0.5-1.5
		c0-0.5-0.2-1-0.5-1.4s-0.8-0.7-1.4-0.9s-1.3-0.5-2.2-0.7l-2.6-0.7c-2-0.5-3.6-1.3-4.8-2.3s-1.8-2.5-1.7-4.2c0-1.5,0.4-2.7,1.2-3.8
		s1.9-1.9,3.2-2.5s2.9-0.9,4.7-0.9c1.8,0,3.3,0.3,4.7,0.9s2.4,1.5,3.1,2.5s1.1,2.3,1.1,3.8H1044.5z"/>
	<path d="M1052.1,1331.4v-4.2h19.7v4.2h-7.3v19.8h-5v-19.8H1052.1z"/>
	<path d="M1080.2,1327.2v24h-5.1v-24H1080.2z"/>
	<path d="M1100.3,1335c-0.2-0.6-0.4-1.1-0.7-1.5s-0.7-0.8-1.1-1.1s-0.9-0.5-1.5-0.7s-1.1-0.2-1.8-0.2c-1.2,0-2.3,0.3-3.2,0.9
		s-1.6,1.5-2.2,2.7s-0.8,2.6-0.8,4.2s0.3,3.1,0.8,4.3s1.2,2.1,2.2,2.7s2,0.9,3.3,0.9c1.1,0,2.1-0.2,2.9-0.6s1.4-1,1.9-1.7
		s0.7-1.6,0.7-2.7l1,0.2h-6.2v-3.8h10v3c0,2.1-0.4,3.9-1.3,5.4s-2.1,2.7-3.7,3.5s-3.4,1.2-5.4,1.2c-2.2,0-4.2-0.5-5.9-1.5
		s-3-2.4-4-4.3s-1.4-4-1.4-6.6c0-1.9,0.3-3.7,0.8-5.2s1.4-2.8,2.4-3.9s2.2-1.9,3.6-2.4s2.8-0.8,4.4-0.8c1.4,0,2.6,0.2,3.8,0.6
		s2.2,1,3.1,1.7s1.7,1.6,2.2,2.6s0.9,2.1,1.1,3.3H1100.3z"/>
	<path d="M1109.5,1351.2v-24h16.2v4.2h-11.1v5.7h10.3v4.2h-10.3v5.7h11.1v4.2H1109.5z"/>
	<path d="M1142.7,1334.2c-0.1-0.9-0.5-1.7-1.2-2.2s-1.7-0.8-2.9-0.8c-0.8,0-1.5,0.1-2.1,0.3s-1,0.5-1.3,1s-0.5,0.9-0.5,1.4
		c0,0.4,0.1,0.8,0.3,1.1s0.5,0.6,0.8,0.8s0.8,0.4,1.2,0.6s1,0.3,1.5,0.4l2.2,0.5c1,0.2,2,0.5,2.9,0.9s1.6,0.9,2.3,1.4s1.1,1.2,1.5,2
		s0.5,1.7,0.5,2.7c0,1.5-0.4,2.7-1.1,3.8s-1.8,1.9-3.2,2.5s-3.1,0.9-5,0.9c-1.9,0-3.6-0.3-5.1-0.9s-2.6-1.5-3.4-2.6
		s-1.2-2.6-1.3-4.3h4.9c0.1,0.8,0.3,1.5,0.7,2s1,0.9,1.7,1.2s1.5,0.4,2.3,0.4c0.9,0,1.6-0.1,2.2-0.4s1.1-0.6,1.5-1s0.5-1,0.5-1.5
		c0-0.5-0.2-1-0.5-1.4s-0.8-0.7-1.4-0.9s-1.3-0.5-2.2-0.7l-2.6-0.7c-2-0.5-3.6-1.3-4.8-2.3s-1.8-2.5-1.7-4.2c0-1.5,0.4-2.7,1.2-3.8
		s1.9-1.9,3.2-2.5s2.9-0.9,4.7-0.9c1.8,0,3.3,0.3,4.7,0.9s2.4,1.5,3.1,2.5s1.1,2.3,1.1,3.8H1142.7z"/>
</g>
</svg>
